<svg xmlns="http://www.w3.org/2000/svg" viewBox="0 0 160 160" role="img" aria-labelledby="title desc">
  <title id="title">Roundkeeper mark</title>
  <desc id="desc">A medieval fantasy round shield seal with a turn arrow and battle order marks.</desc>
  <defs>
    <radialGradient id="shieldFace" cx="50%" cy="38%" r="66%">
      <stop offset="0" stop-color="#5a3421"/>
      <stop offset=".58" stop-color="#221712"/>
      <stop offset="1" stop-color="#0d0b0a"/>
    </radialGradient>
    <linearGradient id="oldGold" x1="0" x2="0" y1="0" y2="1">
      <stop offset="0" stop-color="#fff1b8"/>
      <stop offset=".44" stop-color="#d9a94a"/>
      <stop offset="1" stop-color="#6f4315"/>
    </linearGradient>
    <linearGradient id="iron" x1="0" x2="1" y1="0" y2="1">
      <stop offset="0" stop-color="#d6c8a5"/>
      <stop offset=".35" stop-color="#6f6354"/>
      <stop offset=".7" stop-color="#1b1a1c"/>
      <stop offset="1" stop-color="#a6936e"/>
    </linearGradient>
    <filter id="shadow" x="-20%" y="-20%" width="140%" height="145%">
      <feDropShadow dx="0" dy="7" stdDeviation="5" flood-color="#000" flood-opacity=".55"/>
    </filter>
  </defs>

  <g filter="url(#shadow)">
    <circle cx="80" cy="83" r="63" fill="#080707"/>
    <circle cx="80" cy="83" r="59" fill="url(#iron)"/>
    <circle cx="80" cy="83" r="50" fill="url(#shieldFace)" stroke="#f2c760" stroke-width="3"/>

    <path d="M80 30 121 52 112 106C108 125 94 139 80 146 66 139 52 125 48 106L39 52Z" fill="none" stroke="#ffecae" stroke-opacity=".42" stroke-width="2.5" stroke-linejoin="round"/>

    <path d="M80 13 102 38H91v22H69V38H58Z" fill="url(#oldGold)" stroke="#fff1b8" stroke-width="4" stroke-linejoin="round"/>
    <path d="M68 76h24M68 92h24M68 108h24" stroke="#f2c760" stroke-width="5" stroke-linecap="round"/>
    <path d="M80 58c-14 0-26 11-26 25s12 25 26 25 26-11 26-25S94 58 80 58Zm0 12c8 0 14 6 14 13s-6 13-14 13-14-6-14-13 6-13 14-13Z" fill="#f5ead0" fill-opacity=".16" stroke="#f2c760" stroke-opacity=".62" stroke-width="2"/>

    <circle cx="42" cy="83" r="5" fill="#a94838" stroke="#ffb3a6" stroke-width="1.5"/>
    <circle cx="118" cy="83" r="5" fill="#6e8e5b" stroke="#dff4c9" stroke-width="1.5"/>
    <circle cx="80" cy="132" r="5" fill="#617e9f" stroke="#cfe2ff" stroke-width="1.5"/>

    <path d="M36 44 48 38M124 44 112 38M36 122l12 6M124 122l-12 6" stroke="#0b0908" stroke-width="5" stroke-linecap="round" opacity=".55"/>
    <path d="M36 44 48 38M124 44 112 38M36 122l12 6M124 122l-12 6" stroke="#ffecae" stroke-width="2" stroke-linecap="round" opacity=".45"/>
  </g>
</svg>
